<svg xmlns="http://www.w3.org/2000/svg" width="1294.674" height="366.942" viewBox="0 0 1294.674 366.942">
  <g id="Group_33" data-name="Group 33" transform="translate(-3937.607 -10643.961)">
    <rect id="Rectangle_35" data-name="Rectangle 35" width="1280" height="340" transform="translate(3942 10653)" fill="#7aac88"/>
    <g id="Group_29" data-name="Group 29" transform="translate(3942 6737)">
      <path id="Icon_awesome-leaf" data-name="Icon awesome-leaf" d="M38.4.682A1.094,1.094,0,0,0,36.415.6,12.057,12.057,0,0,1,25.875,6.75H20.25a13.5,13.5,0,0,0-13.5,13.5,13.9,13.9,0,0,0,.105,1.441C11.341,18.478,17.817,15.75,27,15.75A1.125,1.125,0,0,1,27,18C9.323,18,1.828,28.835.169,32.906a2.253,2.253,0,0,0,4.17,1.709,18.5,18.5,0,0,1,5.055-6.37,13.47,13.47,0,0,0,12.3,5.428c11.039-.8,18.809-10.7,18.809-22.823A25.568,25.568,0,0,0,38.4.682Z" transform="translate(115.819 3968.996) rotate(76)" fill="#4a7255"/>
      <path id="Icon_awesome-leaf-2" data-name="Icon awesome-leaf" d="M38.4.682A1.094,1.094,0,0,0,36.415.6,12.057,12.057,0,0,1,25.875,6.75H20.25a13.5,13.5,0,0,0-13.5,13.5,13.9,13.9,0,0,0,.105,1.441C11.341,18.478,17.817,15.75,27,15.75A1.125,1.125,0,0,1,27,18C9.323,18,1.828,28.835.169,32.906a2.253,2.253,0,0,0,4.17,1.709,18.5,18.5,0,0,1,5.055-6.37,13.47,13.47,0,0,0,12.3,5.428c11.039-.8,18.809-10.7,18.809-22.823A25.568,25.568,0,0,0,38.4.682Z" transform="translate(10 3924)" fill="#4a7255"/>
      <path id="Icon_awesome-leaf-3" data-name="Icon awesome-leaf" d="M15.017,7.8A13.4,13.4,0,0,0,6.75,20.25a13.9,13.9,0,0,0,.105,1.441,29.914,29.914,0,0,1,6.515-3.578l-.42,2.654C5.3,24.127,1.3,30.13.169,32.906a2.253,2.253,0,0,0,4.17,1.709,18.5,18.5,0,0,1,5.055-6.37,14.382,14.382,0,0,0,2.034,2.194S14.679,9.936,15.017,7.8Z" transform="translate(16.071 4015.611) rotate(171)" fill="#4a7255"/>
      <path id="Icon_awesome-leaf-4" data-name="Icon awesome-leaf" d="M38.4.682A1.094,1.094,0,0,0,36.415.6,12.057,12.057,0,0,1,25.875,6.75H20.25a13.5,13.5,0,0,0-13.5,13.5,13.9,13.9,0,0,0,.105,1.441C11.341,18.478,17.817,15.75,27,15.75A1.125,1.125,0,0,1,27,18C9.323,18,1.828,28.835.169,32.906a2.253,2.253,0,0,0,4.17,1.709,18.5,18.5,0,0,1,5.055-6.37,13.47,13.47,0,0,0,12.3,5.428c11.039-.8,18.809-10.7,18.809-22.823A25.568,25.568,0,0,0,38.4.682Z" transform="matrix(0.616, 0.788, -0.788, 0.616, 108.968, 3914.959)" fill="#4a7255"/>
      <path id="Icon_awesome-leaf-5" data-name="Icon awesome-leaf" d="M38.4.682A1.094,1.094,0,0,0,36.415.6,12.057,12.057,0,0,1,25.875,6.75H20.25a13.5,13.5,0,0,0-13.5,13.5,13.9,13.9,0,0,0,.105,1.441C11.341,18.478,17.817,15.75,27,15.75A1.125,1.125,0,0,1,27,18C9.323,18,1.828,28.835.169,32.906a2.253,2.253,0,0,0,4.17,1.709,18.5,18.5,0,0,1,5.055-6.37,13.47,13.47,0,0,0,12.3,5.428c11.039-.8,18.809-10.7,18.809-22.823A25.568,25.568,0,0,0,38.4.682Z" transform="translate(284.818 3964.996) rotate(76)" fill="#4a7255"/>
      <path id="Icon_awesome-leaf-6" data-name="Icon awesome-leaf" d="M38.4.682A1.094,1.094,0,0,0,36.415.6,12.057,12.057,0,0,1,25.875,6.75H20.25a13.5,13.5,0,0,0-13.5,13.5,13.9,13.9,0,0,0,.105,1.441C11.341,18.478,17.817,15.75,27,15.75A1.125,1.125,0,0,1,27,18C9.323,18,1.828,28.835.169,32.906a2.253,2.253,0,0,0,4.17,1.709,18.5,18.5,0,0,1,5.055-6.37,13.47,13.47,0,0,0,12.3,5.428c11.039-.8,18.809-10.7,18.809-22.823A25.568,25.568,0,0,0,38.4.682Z" transform="translate(179 3920)" fill="#4a7255"/>
      <path id="Icon_awesome-leaf-7" data-name="Icon awesome-leaf" d="M38.4.682A1.094,1.094,0,0,0,36.415.6,12.057,12.057,0,0,1,25.875,6.75H20.25a13.5,13.5,0,0,0-13.5,13.5,13.9,13.9,0,0,0,.105,1.441C11.341,18.478,17.817,15.75,27,15.75A1.125,1.125,0,0,1,27,18C9.323,18,1.828,28.835.169,32.906a2.253,2.253,0,0,0,4.17,1.709,18.5,18.5,0,0,1,5.055-6.37,13.47,13.47,0,0,0,12.3,5.428c11.039-.8,18.809-10.7,18.809-22.823A25.568,25.568,0,0,0,38.4.682Z" transform="translate(179.07 4010.611) rotate(171)" fill="#4a7255"/>
      <path id="Icon_awesome-leaf-8" data-name="Icon awesome-leaf" d="M38.4.682A1.094,1.094,0,0,0,36.415.6,12.057,12.057,0,0,1,25.875,6.75H20.25a13.5,13.5,0,0,0-13.5,13.5,13.9,13.9,0,0,0,.105,1.441C11.341,18.478,17.817,15.75,27,15.75A1.125,1.125,0,0,1,27,18C9.323,18,1.828,28.835.169,32.906a2.253,2.253,0,0,0,4.17,1.709,18.5,18.5,0,0,1,5.055-6.37,13.47,13.47,0,0,0,12.3,5.428c11.039-.8,18.809-10.7,18.809-22.823A25.568,25.568,0,0,0,38.4.682Z" transform="matrix(0.616, 0.788, -0.788, 0.616, 277.968, 3910.959)" fill="#4a7255"/>
      <path id="Icon_awesome-leaf-9" data-name="Icon awesome-leaf" d="M38.4.682A1.094,1.094,0,0,0,36.415.6,12.057,12.057,0,0,1,25.875,6.75H20.25a13.5,13.5,0,0,0-13.5,13.5,13.9,13.9,0,0,0,.105,1.441C11.341,18.478,17.817,15.75,27,15.75A1.125,1.125,0,0,1,27,18C9.323,18,1.828,28.835.169,32.906a2.253,2.253,0,0,0,4.17,1.709,18.5,18.5,0,0,1,5.055-6.37,13.47,13.47,0,0,0,12.3,5.428c11.039-.8,18.809-10.7,18.809-22.823A25.568,25.568,0,0,0,38.4.682Z" transform="translate(453.818 3960.996) rotate(76)" fill="#4a7255"/>
      <path id="Icon_awesome-leaf-10" data-name="Icon awesome-leaf" d="M38.4.682A1.094,1.094,0,0,0,36.415.6,12.057,12.057,0,0,1,25.875,6.75H20.25a13.5,13.5,0,0,0-13.5,13.5,13.9,13.9,0,0,0,.105,1.441C11.341,18.478,17.817,15.75,27,15.75A1.125,1.125,0,0,1,27,18C9.323,18,1.828,28.835.169,32.906a2.253,2.253,0,0,0,4.17,1.709,18.5,18.5,0,0,1,5.055-6.37,13.47,13.47,0,0,0,12.3,5.428c11.039-.8,18.809-10.7,18.809-22.823A25.568,25.568,0,0,0,38.4.682Z" transform="translate(348 3916)" fill="#4a7255"/>
      <path id="Icon_awesome-leaf-11" data-name="Icon awesome-leaf" d="M38.4.682A1.094,1.094,0,0,0,36.415.6,12.057,12.057,0,0,1,25.875,6.75H20.25a13.5,13.5,0,0,0-13.5,13.5,13.9,13.9,0,0,0,.105,1.441C11.341,18.478,17.817,15.75,27,15.75A1.125,1.125,0,0,1,27,18C9.323,18,1.828,28.835.169,32.906a2.253,2.253,0,0,0,4.17,1.709,18.5,18.5,0,0,1,5.055-6.37,13.47,13.47,0,0,0,12.3,5.428c11.039-.8,18.809-10.7,18.809-22.823A25.568,25.568,0,0,0,38.4.682Z" transform="translate(348.07 4006.611) rotate(171)" fill="#4a7255"/>
      <path id="Icon_awesome-leaf-12" data-name="Icon awesome-leaf" d="M38.4.682A1.094,1.094,0,0,0,36.415.6,12.057,12.057,0,0,1,25.875,6.75H20.25a13.5,13.5,0,0,0-13.5,13.5,13.9,13.9,0,0,0,.105,1.441C11.341,18.478,17.817,15.75,27,15.75A1.125,1.125,0,0,1,27,18C9.323,18,1.828,28.835.169,32.906a2.253,2.253,0,0,0,4.17,1.709,18.5,18.5,0,0,1,5.055-6.37,13.47,13.47,0,0,0,12.3,5.428c11.039-.8,18.809-10.7,18.809-22.823A25.568,25.568,0,0,0,38.4.682Z" transform="matrix(0.616, 0.788, -0.788, 0.616, 446.968, 3906.959)" fill="#4a7255"/>
      <path id="Icon_awesome-leaf-13" data-name="Icon awesome-leaf" d="M38.4.682A1.094,1.094,0,0,0,36.415.6,12.057,12.057,0,0,1,25.875,6.75H20.25a13.5,13.5,0,0,0-13.5,13.5,13.9,13.9,0,0,0,.105,1.441C11.341,18.478,17.817,15.75,27,15.75A1.125,1.125,0,0,1,27,18C9.323,18,1.828,28.835.169,32.906a2.253,2.253,0,0,0,4.17,1.709,18.5,18.5,0,0,1,5.055-6.37,13.47,13.47,0,0,0,12.3,5.428c11.039-.8,18.809-10.7,18.809-22.823A25.568,25.568,0,0,0,38.4.682Z" transform="translate(622.818 3961.996) rotate(76)" fill="#4a7255"/>
      <path id="Icon_awesome-leaf-14" data-name="Icon awesome-leaf" d="M38.4.682A1.094,1.094,0,0,0,36.415.6,12.057,12.057,0,0,1,25.875,6.75H20.25a13.5,13.5,0,0,0-13.5,13.5,13.9,13.9,0,0,0,.105,1.441C11.341,18.478,17.817,15.75,27,15.75A1.125,1.125,0,0,1,27,18C9.323,18,1.828,28.835.169,32.906a2.253,2.253,0,0,0,4.17,1.709,18.5,18.5,0,0,1,5.055-6.37,13.47,13.47,0,0,0,12.3,5.428c11.039-.8,18.809-10.7,18.809-22.823A25.568,25.568,0,0,0,38.4.682Z" transform="translate(517 3917)" fill="#4a7255"/>
      <path id="Icon_awesome-leaf-15" data-name="Icon awesome-leaf" d="M38.4.682A1.094,1.094,0,0,0,36.415.6,12.057,12.057,0,0,1,25.875,6.75H20.25a13.5,13.5,0,0,0-13.5,13.5,13.9,13.9,0,0,0,.105,1.441C11.341,18.478,17.817,15.75,27,15.75A1.125,1.125,0,0,1,27,18C9.323,18,1.828,28.835.169,32.906a2.253,2.253,0,0,0,4.17,1.709,18.5,18.5,0,0,1,5.055-6.37,13.47,13.47,0,0,0,12.3,5.428c11.039-.8,18.809-10.7,18.809-22.823A25.568,25.568,0,0,0,38.4.682Z" transform="translate(517.07 4007.611) rotate(171)" fill="#4a7255"/>
      <path id="Icon_awesome-leaf-16" data-name="Icon awesome-leaf" d="M38.4.682A1.094,1.094,0,0,0,36.415.6,12.057,12.057,0,0,1,25.875,6.75H20.25a13.5,13.5,0,0,0-13.5,13.5,13.9,13.9,0,0,0,.105,1.441C11.341,18.478,17.817,15.75,27,15.75A1.125,1.125,0,0,1,27,18C9.323,18,1.828,28.835.169,32.906a2.253,2.253,0,0,0,4.17,1.709,18.5,18.5,0,0,1,5.055-6.37,13.47,13.47,0,0,0,12.3,5.428c11.039-.8,18.809-10.7,18.809-22.823A25.568,25.568,0,0,0,38.4.682Z" transform="matrix(0.616, 0.788, -0.788, 0.616, 615.968, 3907.959)" fill="#4a7255"/>
      <path id="Icon_awesome-leaf-17" data-name="Icon awesome-leaf" d="M38.4.682A1.094,1.094,0,0,0,36.415.6,12.057,12.057,0,0,1,25.875,6.75H20.25a13.5,13.5,0,0,0-13.5,13.5,13.9,13.9,0,0,0,.105,1.441C11.341,18.478,17.817,15.75,27,15.75A1.125,1.125,0,0,1,27,18C9.323,18,1.828,28.835.169,32.906a2.253,2.253,0,0,0,4.17,1.709,18.5,18.5,0,0,1,5.055-6.37,13.47,13.47,0,0,0,12.3,5.428c11.039-.8,18.809-10.7,18.809-22.823A25.568,25.568,0,0,0,38.4.682Z" transform="translate(791.818 3964.996) rotate(76)" fill="#4a7255"/>
      <path id="Icon_awesome-leaf-18" data-name="Icon awesome-leaf" d="M38.4.682A1.094,1.094,0,0,0,36.415.6,12.057,12.057,0,0,1,25.875,6.75H20.25a13.5,13.5,0,0,0-13.5,13.5,13.9,13.9,0,0,0,.105,1.441C11.341,18.478,17.817,15.75,27,15.75A1.125,1.125,0,0,1,27,18C9.323,18,1.828,28.835.169,32.906a2.253,2.253,0,0,0,4.17,1.709,18.5,18.5,0,0,1,5.055-6.37,13.47,13.47,0,0,0,12.3,5.428c11.039-.8,18.809-10.7,18.809-22.823A25.568,25.568,0,0,0,38.4.682Z" transform="translate(686 3920)" fill="#4a7255"/>
      <path id="Icon_awesome-leaf-19" data-name="Icon awesome-leaf" d="M38.4.682A1.094,1.094,0,0,0,36.415.6,12.057,12.057,0,0,1,25.875,6.75H20.25a13.5,13.5,0,0,0-13.5,13.5,13.9,13.9,0,0,0,.105,1.441C11.341,18.478,17.817,15.75,27,15.75A1.125,1.125,0,0,1,27,18C9.323,18,1.828,28.835.169,32.906a2.253,2.253,0,0,0,4.17,1.709,18.5,18.5,0,0,1,5.055-6.37,13.47,13.47,0,0,0,12.3,5.428c11.039-.8,18.809-10.7,18.809-22.823A25.568,25.568,0,0,0,38.4.682Z" transform="translate(686.07 4010.611) rotate(171)" fill="#4a7255"/>
      <path id="Icon_awesome-leaf-20" data-name="Icon awesome-leaf" d="M38.4.682A1.094,1.094,0,0,0,36.415.6,12.057,12.057,0,0,1,25.875,6.75H20.25a13.5,13.5,0,0,0-13.5,13.5,13.9,13.9,0,0,0,.105,1.441C11.341,18.478,17.817,15.75,27,15.75A1.125,1.125,0,0,1,27,18C9.323,18,1.828,28.835.169,32.906a2.253,2.253,0,0,0,4.17,1.709,18.5,18.5,0,0,1,5.055-6.37,13.47,13.47,0,0,0,12.3,5.428c11.039-.8,18.809-10.7,18.809-22.823A25.568,25.568,0,0,0,38.4.682Z" transform="matrix(0.616, 0.788, -0.788, 0.616, 784.968, 3910.959)" fill="#4a7255"/>
      <path id="Icon_awesome-leaf-21" data-name="Icon awesome-leaf" d="M38.4.682A1.094,1.094,0,0,0,36.415.6,12.057,12.057,0,0,1,25.875,6.75H20.25a13.5,13.5,0,0,0-13.5,13.5,13.9,13.9,0,0,0,.105,1.441C11.341,18.478,17.817,15.75,27,15.75A1.125,1.125,0,0,1,27,18C9.323,18,1.828,28.835.169,32.906a2.253,2.253,0,0,0,4.17,1.709,18.5,18.5,0,0,1,5.055-6.37,13.47,13.47,0,0,0,12.3,5.428c11.039-.8,18.809-10.7,18.809-22.823A25.568,25.568,0,0,0,38.4.682Z" transform="translate(960.818 3971.996) rotate(76)" fill="#4a7255"/>
      <path id="Icon_awesome-leaf-22" data-name="Icon awesome-leaf" d="M38.4.682A1.094,1.094,0,0,0,36.415.6,12.057,12.057,0,0,1,25.875,6.75H20.25a13.5,13.5,0,0,0-13.5,13.5,13.9,13.9,0,0,0,.105,1.441C11.341,18.478,17.817,15.75,27,15.75A1.125,1.125,0,0,1,27,18C9.323,18,1.828,28.835.169,32.906a2.253,2.253,0,0,0,4.17,1.709,18.5,18.5,0,0,1,5.055-6.37,13.47,13.47,0,0,0,12.3,5.428c11.039-.8,18.809-10.7,18.809-22.823A25.568,25.568,0,0,0,38.4.682Z" transform="translate(855 3927)" fill="#4a7255"/>
      <path id="Icon_awesome-leaf-23" data-name="Icon awesome-leaf" d="M38.4.682A1.094,1.094,0,0,0,36.415.6,12.057,12.057,0,0,1,25.875,6.75H20.25a13.5,13.5,0,0,0-13.5,13.5,13.9,13.9,0,0,0,.105,1.441C11.341,18.478,17.817,15.75,27,15.75A1.125,1.125,0,0,1,27,18C9.323,18,1.828,28.835.169,32.906a2.253,2.253,0,0,0,4.17,1.709,18.5,18.5,0,0,1,5.055-6.37,13.47,13.47,0,0,0,12.3,5.428c11.039-.8,18.809-10.7,18.809-22.823A25.568,25.568,0,0,0,38.4.682Z" transform="translate(855.07 4017.611) rotate(171)" fill="#4a7255"/>
      <path id="Icon_awesome-leaf-24" data-name="Icon awesome-leaf" d="M38.4.682A1.094,1.094,0,0,0,36.415.6,12.057,12.057,0,0,1,25.875,6.75H20.25a13.5,13.5,0,0,0-13.5,13.5,13.9,13.9,0,0,0,.105,1.441C11.341,18.478,17.817,15.75,27,15.75A1.125,1.125,0,0,1,27,18C9.323,18,1.828,28.835.169,32.906a2.253,2.253,0,0,0,4.17,1.709,18.5,18.5,0,0,1,5.055-6.37,13.47,13.47,0,0,0,12.3,5.428c11.039-.8,18.809-10.7,18.809-22.823A25.568,25.568,0,0,0,38.4.682Z" transform="matrix(0.616, 0.788, -0.788, 0.616, 953.968, 3917.959)" fill="#4a7255"/>
      <path id="Icon_awesome-leaf-25" data-name="Icon awesome-leaf" d="M38.4.682A1.094,1.094,0,0,0,36.415.6,12.057,12.057,0,0,1,25.875,6.75H20.25a13.5,13.5,0,0,0-13.5,13.5,13.9,13.9,0,0,0,.105,1.441C11.341,18.478,17.817,15.75,27,15.75A1.125,1.125,0,0,1,27,18C9.323,18,1.828,28.835.169,32.906a2.253,2.253,0,0,0,4.17,1.709,18.5,18.5,0,0,1,5.055-6.37,13.47,13.47,0,0,0,12.3,5.428c11.039-.8,18.809-10.7,18.809-22.823A25.568,25.568,0,0,0,38.4.682Z" transform="translate(1129.818 3964.996) rotate(76)" fill="#4a7255"/>
      <path id="Icon_awesome-leaf-26" data-name="Icon awesome-leaf" d="M38.4.682A1.094,1.094,0,0,0,36.415.6,12.057,12.057,0,0,1,25.875,6.75H20.25a13.5,13.5,0,0,0-13.5,13.5,13.9,13.9,0,0,0,.105,1.441C11.341,18.478,17.817,15.75,27,15.75A1.125,1.125,0,0,1,27,18C9.323,18,1.828,28.835.169,32.906a2.253,2.253,0,0,0,4.17,1.709,18.5,18.5,0,0,1,5.055-6.37,13.47,13.47,0,0,0,12.3,5.428c11.039-.8,18.809-10.7,18.809-22.823A25.568,25.568,0,0,0,38.4.682Z" transform="translate(1024 3920)" fill="#4a7255"/>
      <path id="Icon_awesome-leaf-27" data-name="Icon awesome-leaf" d="M38.4.682A1.094,1.094,0,0,0,36.415.6,12.057,12.057,0,0,1,25.875,6.75H20.25a13.5,13.5,0,0,0-13.5,13.5,13.9,13.9,0,0,0,.105,1.441C11.341,18.478,17.817,15.75,27,15.75A1.125,1.125,0,0,1,27,18C9.323,18,1.828,28.835.169,32.906a2.253,2.253,0,0,0,4.17,1.709,18.5,18.5,0,0,1,5.055-6.37,13.47,13.47,0,0,0,12.3,5.428c11.039-.8,18.809-10.7,18.809-22.823A25.568,25.568,0,0,0,38.4.682Z" transform="translate(1024.07 4010.611) rotate(171)" fill="#4a7255"/>
      <path id="Icon_awesome-leaf-28" data-name="Icon awesome-leaf" d="M38.4.682A1.094,1.094,0,0,0,36.415.6,12.057,12.057,0,0,1,25.875,6.75H20.25a13.5,13.5,0,0,0-13.5,13.5,13.9,13.9,0,0,0,.105,1.441C11.341,18.478,17.817,15.75,27,15.75A1.125,1.125,0,0,1,27,18C9.323,18,1.828,28.835.169,32.906a2.253,2.253,0,0,0,4.17,1.709,18.5,18.5,0,0,1,5.055-6.37,13.47,13.47,0,0,0,12.3,5.428c11.039-.8,18.809-10.7,18.809-22.823A25.568,25.568,0,0,0,38.4.682Z" transform="matrix(0.616, 0.788, -0.788, 0.616, 1122.968, 3910.959)" fill="#4a7255"/>
      <path id="Icon_awesome-leaf-29" data-name="Icon awesome-leaf" d="M10.672,21.919A23.949,23.949,0,0,0,.169,32.906a2.253,2.253,0,0,0,4.17,1.709,18.5,18.5,0,0,1,5.055-6.37,13.47,13.47,0,0,0,12.3,5.428A19.079,19.079,0,0,0,33.95,27.947C21.586,24.84,13.013,22.607,10.672,21.919Z" transform="translate(1298.818 3964.996) rotate(76)" fill="#4a7255"/>
      <path id="Icon_awesome-leaf-30" data-name="Icon awesome-leaf" d="M38.4.682A1.094,1.094,0,0,0,36.415.6,12.057,12.057,0,0,1,25.875,6.75H20.25a13.5,13.5,0,0,0-13.5,13.5,13.9,13.9,0,0,0,.105,1.441C11.341,18.478,17.817,15.75,27,15.75A1.125,1.125,0,0,1,27,18C9.323,18,1.828,28.835.169,32.906a2.253,2.253,0,0,0,4.17,1.709,18.5,18.5,0,0,1,5.055-6.37,13.47,13.47,0,0,0,12.3,5.428c11.039-.8,18.809-10.7,18.809-22.823A25.568,25.568,0,0,0,38.4.682Z" transform="translate(1193 3920)" fill="#4a7255"/>
      <path id="Icon_awesome-leaf-31" data-name="Icon awesome-leaf" d="M38.4.682A1.094,1.094,0,0,0,36.415.6,12.057,12.057,0,0,1,25.875,6.75H20.25a13.5,13.5,0,0,0-13.5,13.5,13.9,13.9,0,0,0,.105,1.441C11.341,18.478,17.817,15.75,27,15.75A1.125,1.125,0,0,1,27,18C9.323,18,1.828,28.835.169,32.906a2.253,2.253,0,0,0,4.17,1.709,18.5,18.5,0,0,1,5.055-6.37,13.47,13.47,0,0,0,12.3,5.428c11.039-.8,18.809-10.7,18.809-22.823A25.568,25.568,0,0,0,38.4.682Z" transform="translate(1193.07 4010.611) rotate(171)" fill="#4a7255"/>
      <path id="Icon_awesome-leaf-32" data-name="Icon awesome-leaf" d="M6.783,20.305a107.272,107.272,0,0,0-6.614,12.6,2.253,2.253,0,0,0,4.17,1.709,18.5,18.5,0,0,1,5.055-6.37,13.47,13.47,0,0,0,12.3,5.428c.419-.03.834-.074,1.557-.176C11.1,23.821,18.752,29.915,6.783,20.305Z" transform="matrix(0.616, 0.788, -0.788, 0.616, 1291.968, 3910.959)" fill="#4a7255"/>
    </g>
    <g id="Group_30" data-name="Group 30" transform="translate(3879 6848)">
      <path id="Icon_awesome-leaf-33" data-name="Icon awesome-leaf" d="M38.4.682A1.094,1.094,0,0,0,36.415.6,12.057,12.057,0,0,1,25.875,6.75H20.25a13.5,13.5,0,0,0-13.5,13.5,13.9,13.9,0,0,0,.105,1.441C11.341,18.478,17.817,15.75,27,15.75A1.125,1.125,0,0,1,27,18C9.323,18,1.828,28.835.169,32.906a2.253,2.253,0,0,0,4.17,1.709,18.5,18.5,0,0,1,5.055-6.37,13.47,13.47,0,0,0,12.3,5.428c11.039-.8,18.809-10.7,18.809-22.823A25.568,25.568,0,0,0,38.4.682Z" transform="translate(115.819 3968.996) rotate(76)" fill="#4a7255"/>
      <path id="Icon_awesome-leaf-34" data-name="Icon awesome-leaf" d="M38.4.682A1.094,1.094,0,0,0,36.415.6,12.057,12.057,0,0,1,25.875,6.75H20.25a13.5,13.5,0,0,0-13.5,13.5,13.9,13.9,0,0,0,.105,1.441C11.341,18.478,17.817,15.75,27,15.75A1.125,1.125,0,0,1,27,18C9.323,18,1.828,28.835.169,32.906a2.253,2.253,0,0,0,4.17,1.709,18.5,18.5,0,0,1,5.055-6.37,13.47,13.47,0,0,0,12.3,5.428c11.039-.8,18.809-10.7,18.809-22.823A25.568,25.568,0,0,0,38.4.682Z" transform="matrix(0.616, 0.788, -0.788, 0.616, 108.968, 3914.959)" fill="#4a7255"/>
      <path id="Icon_awesome-leaf-35" data-name="Icon awesome-leaf" d="M38.4.682A1.094,1.094,0,0,0,36.415.6,12.057,12.057,0,0,1,25.875,6.75H20.25a13.5,13.5,0,0,0-13.5,13.5,13.9,13.9,0,0,0,.105,1.441C11.341,18.478,17.817,15.75,27,15.75A1.125,1.125,0,0,1,27,18C9.323,18,1.828,28.835.169,32.906a2.253,2.253,0,0,0,4.17,1.709,18.5,18.5,0,0,1,5.055-6.37,13.47,13.47,0,0,0,12.3,5.428c11.039-.8,18.809-10.7,18.809-22.823A25.568,25.568,0,0,0,38.4.682Z" transform="translate(284.818 3964.996) rotate(76)" fill="#4a7255"/>
      <path id="Icon_awesome-leaf-36" data-name="Icon awesome-leaf" d="M38.4.682A1.094,1.094,0,0,0,36.415.6,12.057,12.057,0,0,1,25.875,6.75H20.25a13.5,13.5,0,0,0-13.5,13.5,13.9,13.9,0,0,0,.105,1.441C11.341,18.478,17.817,15.75,27,15.75A1.125,1.125,0,0,1,27,18C9.323,18,1.828,28.835.169,32.906a2.253,2.253,0,0,0,4.17,1.709,18.5,18.5,0,0,1,5.055-6.37,13.47,13.47,0,0,0,12.3,5.428c11.039-.8,18.809-10.7,18.809-22.823A25.568,25.568,0,0,0,38.4.682Z" transform="translate(179 3920)" fill="#4a7255"/>
      <path id="Icon_awesome-leaf-37" data-name="Icon awesome-leaf" d="M38.4.682A1.094,1.094,0,0,0,36.415.6,12.057,12.057,0,0,1,25.875,6.75H20.25a13.5,13.5,0,0,0-13.5,13.5,13.9,13.9,0,0,0,.105,1.441C11.341,18.478,17.817,15.75,27,15.75A1.125,1.125,0,0,1,27,18C9.323,18,1.828,28.835.169,32.906a2.253,2.253,0,0,0,4.17,1.709,18.5,18.5,0,0,1,5.055-6.37,13.47,13.47,0,0,0,12.3,5.428c11.039-.8,18.809-10.7,18.809-22.823A25.568,25.568,0,0,0,38.4.682Z" transform="translate(179.07 4010.611) rotate(171)" fill="#4a7255"/>
      <path id="Icon_awesome-leaf-38" data-name="Icon awesome-leaf" d="M38.4.682A1.094,1.094,0,0,0,36.415.6,12.057,12.057,0,0,1,25.875,6.75H20.25a13.5,13.5,0,0,0-13.5,13.5,13.9,13.9,0,0,0,.105,1.441C11.341,18.478,17.817,15.75,27,15.75A1.125,1.125,0,0,1,27,18C9.323,18,1.828,28.835.169,32.906a2.253,2.253,0,0,0,4.17,1.709,18.5,18.5,0,0,1,5.055-6.37,13.47,13.47,0,0,0,12.3,5.428c11.039-.8,18.809-10.7,18.809-22.823A25.568,25.568,0,0,0,38.4.682Z" transform="matrix(0.616, 0.788, -0.788, 0.616, 277.968, 3910.959)" fill="#4a7255"/>
      <path id="Icon_awesome-leaf-39" data-name="Icon awesome-leaf" d="M38.4.682A1.094,1.094,0,0,0,36.415.6,12.057,12.057,0,0,1,25.875,6.75H20.25a13.5,13.5,0,0,0-13.5,13.5,13.9,13.9,0,0,0,.105,1.441C11.341,18.478,17.817,15.75,27,15.75A1.125,1.125,0,0,1,27,18C9.323,18,1.828,28.835.169,32.906a2.253,2.253,0,0,0,4.17,1.709,18.5,18.5,0,0,1,5.055-6.37,13.47,13.47,0,0,0,12.3,5.428c11.039-.8,18.809-10.7,18.809-22.823A25.568,25.568,0,0,0,38.4.682Z" transform="translate(453.818 3960.996) rotate(76)" fill="#4a7255"/>
      <path id="Icon_awesome-leaf-40" data-name="Icon awesome-leaf" d="M38.4.682A1.094,1.094,0,0,0,36.415.6,12.057,12.057,0,0,1,25.875,6.75H20.25a13.5,13.5,0,0,0-13.5,13.5,13.9,13.9,0,0,0,.105,1.441C11.341,18.478,17.817,15.75,27,15.75A1.125,1.125,0,0,1,27,18C9.323,18,1.828,28.835.169,32.906a2.253,2.253,0,0,0,4.17,1.709,18.5,18.5,0,0,1,5.055-6.37,13.47,13.47,0,0,0,12.3,5.428c11.039-.8,18.809-10.7,18.809-22.823A25.568,25.568,0,0,0,38.4.682Z" transform="translate(348 3916)" fill="#4a7255"/>
      <path id="Icon_awesome-leaf-41" data-name="Icon awesome-leaf" d="M38.4.682A1.094,1.094,0,0,0,36.415.6,12.057,12.057,0,0,1,25.875,6.75H20.25a13.5,13.5,0,0,0-13.5,13.5,13.9,13.9,0,0,0,.105,1.441C11.341,18.478,17.817,15.75,27,15.75A1.125,1.125,0,0,1,27,18C9.323,18,1.828,28.835.169,32.906a2.253,2.253,0,0,0,4.17,1.709,18.5,18.5,0,0,1,5.055-6.37,13.47,13.47,0,0,0,12.3,5.428c11.039-.8,18.809-10.7,18.809-22.823A25.568,25.568,0,0,0,38.4.682Z" transform="translate(348.07 4006.611) rotate(171)" fill="#4a7255"/>
      <path id="Icon_awesome-leaf-42" data-name="Icon awesome-leaf" d="M38.4.682A1.094,1.094,0,0,0,36.415.6,12.057,12.057,0,0,1,25.875,6.75H20.25a13.5,13.5,0,0,0-13.5,13.5,13.9,13.9,0,0,0,.105,1.441C11.341,18.478,17.817,15.75,27,15.75A1.125,1.125,0,0,1,27,18C9.323,18,1.828,28.835.169,32.906a2.253,2.253,0,0,0,4.17,1.709,18.5,18.5,0,0,1,5.055-6.37,13.47,13.47,0,0,0,12.3,5.428c11.039-.8,18.809-10.7,18.809-22.823A25.568,25.568,0,0,0,38.4.682Z" transform="matrix(0.616, 0.788, -0.788, 0.616, 446.968, 3906.959)" fill="#4a7255"/>
      <path id="Icon_awesome-leaf-43" data-name="Icon awesome-leaf" d="M38.4.682A1.094,1.094,0,0,0,36.415.6,12.057,12.057,0,0,1,25.875,6.75H20.25a13.5,13.5,0,0,0-13.5,13.5,13.9,13.9,0,0,0,.105,1.441C11.341,18.478,17.817,15.75,27,15.75A1.125,1.125,0,0,1,27,18C9.323,18,1.828,28.835.169,32.906a2.253,2.253,0,0,0,4.17,1.709,18.5,18.5,0,0,1,5.055-6.37,13.47,13.47,0,0,0,12.3,5.428c11.039-.8,18.809-10.7,18.809-22.823A25.568,25.568,0,0,0,38.4.682Z" transform="translate(622.818 3961.996) rotate(76)" fill="#4a7255"/>
      <path id="Icon_awesome-leaf-44" data-name="Icon awesome-leaf" d="M38.4.682A1.094,1.094,0,0,0,36.415.6,12.057,12.057,0,0,1,25.875,6.75H20.25a13.5,13.5,0,0,0-13.5,13.5,13.9,13.9,0,0,0,.105,1.441C11.341,18.478,17.817,15.75,27,15.75A1.125,1.125,0,0,1,27,18C9.323,18,1.828,28.835.169,32.906a2.253,2.253,0,0,0,4.17,1.709,18.5,18.5,0,0,1,5.055-6.37,13.47,13.47,0,0,0,12.3,5.428c11.039-.8,18.809-10.7,18.809-22.823A25.568,25.568,0,0,0,38.4.682Z" transform="translate(517 3917)" fill="#4a7255"/>
      <path id="Icon_awesome-leaf-45" data-name="Icon awesome-leaf" d="M38.4.682A1.094,1.094,0,0,0,36.415.6,12.057,12.057,0,0,1,25.875,6.75H20.25a13.5,13.5,0,0,0-13.5,13.5,13.9,13.9,0,0,0,.105,1.441C11.341,18.478,17.817,15.75,27,15.75A1.125,1.125,0,0,1,27,18C9.323,18,1.828,28.835.169,32.906a2.253,2.253,0,0,0,4.17,1.709,18.5,18.5,0,0,1,5.055-6.37,13.47,13.47,0,0,0,12.3,5.428c11.039-.8,18.809-10.7,18.809-22.823A25.568,25.568,0,0,0,38.4.682Z" transform="translate(517.07 4007.611) rotate(171)" fill="#4a7255"/>
      <path id="Icon_awesome-leaf-46" data-name="Icon awesome-leaf" d="M38.4.682A1.094,1.094,0,0,0,36.415.6,12.057,12.057,0,0,1,25.875,6.75H20.25a13.5,13.5,0,0,0-13.5,13.5,13.9,13.9,0,0,0,.105,1.441C11.341,18.478,17.817,15.75,27,15.75A1.125,1.125,0,0,1,27,18C9.323,18,1.828,28.835.169,32.906a2.253,2.253,0,0,0,4.17,1.709,18.5,18.5,0,0,1,5.055-6.37,13.47,13.47,0,0,0,12.3,5.428c11.039-.8,18.809-10.7,18.809-22.823A25.568,25.568,0,0,0,38.4.682Z" transform="matrix(0.616, 0.788, -0.788, 0.616, 615.968, 3907.959)" fill="#4a7255"/>
      <path id="Icon_awesome-leaf-47" data-name="Icon awesome-leaf" d="M38.4.682A1.094,1.094,0,0,0,36.415.6,12.057,12.057,0,0,1,25.875,6.75H20.25a13.5,13.5,0,0,0-13.5,13.5,13.9,13.9,0,0,0,.105,1.441C11.341,18.478,17.817,15.75,27,15.75A1.125,1.125,0,0,1,27,18C9.323,18,1.828,28.835.169,32.906a2.253,2.253,0,0,0,4.17,1.709,18.5,18.5,0,0,1,5.055-6.37,13.47,13.47,0,0,0,12.3,5.428c11.039-.8,18.809-10.7,18.809-22.823A25.568,25.568,0,0,0,38.4.682Z" transform="translate(791.818 3964.996) rotate(76)" fill="#4a7255"/>
      <path id="Icon_awesome-leaf-48" data-name="Icon awesome-leaf" d="M38.4.682A1.094,1.094,0,0,0,36.415.6,12.057,12.057,0,0,1,25.875,6.75H20.25a13.5,13.5,0,0,0-13.5,13.5,13.9,13.9,0,0,0,.105,1.441C11.341,18.478,17.817,15.75,27,15.75A1.125,1.125,0,0,1,27,18C9.323,18,1.828,28.835.169,32.906a2.253,2.253,0,0,0,4.17,1.709,18.5,18.5,0,0,1,5.055-6.37,13.47,13.47,0,0,0,12.3,5.428c11.039-.8,18.809-10.7,18.809-22.823A25.568,25.568,0,0,0,38.4.682Z" transform="translate(686 3920)" fill="#4a7255"/>
      <path id="Icon_awesome-leaf-49" data-name="Icon awesome-leaf" d="M38.4.682A1.094,1.094,0,0,0,36.415.6,12.057,12.057,0,0,1,25.875,6.75H20.25a13.5,13.5,0,0,0-13.5,13.5,13.9,13.9,0,0,0,.105,1.441C11.341,18.478,17.817,15.75,27,15.75A1.125,1.125,0,0,1,27,18C9.323,18,1.828,28.835.169,32.906a2.253,2.253,0,0,0,4.17,1.709,18.5,18.5,0,0,1,5.055-6.37,13.47,13.47,0,0,0,12.3,5.428c11.039-.8,18.809-10.7,18.809-22.823A25.568,25.568,0,0,0,38.4.682Z" transform="translate(686.07 4010.611) rotate(171)" fill="#4a7255"/>
      <path id="Icon_awesome-leaf-50" data-name="Icon awesome-leaf" d="M38.4.682A1.094,1.094,0,0,0,36.415.6,12.057,12.057,0,0,1,25.875,6.75H20.25a13.5,13.5,0,0,0-13.5,13.5,13.9,13.9,0,0,0,.105,1.441C11.341,18.478,17.817,15.75,27,15.75A1.125,1.125,0,0,1,27,18C9.323,18,1.828,28.835.169,32.906a2.253,2.253,0,0,0,4.17,1.709,18.5,18.5,0,0,1,5.055-6.37,13.47,13.47,0,0,0,12.3,5.428c11.039-.8,18.809-10.7,18.809-22.823A25.568,25.568,0,0,0,38.4.682Z" transform="matrix(0.616, 0.788, -0.788, 0.616, 784.968, 3910.959)" fill="#4a7255"/>
      <path id="Icon_awesome-leaf-51" data-name="Icon awesome-leaf" d="M38.4.682A1.094,1.094,0,0,0,36.415.6,12.057,12.057,0,0,1,25.875,6.75H20.25a13.5,13.5,0,0,0-13.5,13.5,13.9,13.9,0,0,0,.105,1.441C11.341,18.478,17.817,15.75,27,15.75A1.125,1.125,0,0,1,27,18C9.323,18,1.828,28.835.169,32.906a2.253,2.253,0,0,0,4.17,1.709,18.5,18.5,0,0,1,5.055-6.37,13.47,13.47,0,0,0,12.3,5.428c11.039-.8,18.809-10.7,18.809-22.823A25.568,25.568,0,0,0,38.4.682Z" transform="translate(960.818 3971.996) rotate(76)" fill="#4a7255"/>
      <path id="Icon_awesome-leaf-52" data-name="Icon awesome-leaf" d="M38.4.682A1.094,1.094,0,0,0,36.415.6,12.057,12.057,0,0,1,25.875,6.75H20.25a13.5,13.5,0,0,0-13.5,13.5,13.9,13.9,0,0,0,.105,1.441C11.341,18.478,17.817,15.75,27,15.75A1.125,1.125,0,0,1,27,18C9.323,18,1.828,28.835.169,32.906a2.253,2.253,0,0,0,4.17,1.709,18.5,18.5,0,0,1,5.055-6.37,13.47,13.47,0,0,0,12.3,5.428c11.039-.8,18.809-10.7,18.809-22.823A25.568,25.568,0,0,0,38.4.682Z" transform="translate(855 3927)" fill="#4a7255"/>
      <path id="Icon_awesome-leaf-53" data-name="Icon awesome-leaf" d="M38.4.682A1.094,1.094,0,0,0,36.415.6,12.057,12.057,0,0,1,25.875,6.75H20.25a13.5,13.5,0,0,0-13.5,13.5,13.9,13.9,0,0,0,.105,1.441C11.341,18.478,17.817,15.75,27,15.75A1.125,1.125,0,0,1,27,18C9.323,18,1.828,28.835.169,32.906a2.253,2.253,0,0,0,4.17,1.709,18.5,18.5,0,0,1,5.055-6.37,13.47,13.47,0,0,0,12.3,5.428c11.039-.8,18.809-10.7,18.809-22.823A25.568,25.568,0,0,0,38.4.682Z" transform="translate(855.07 4017.611) rotate(171)" fill="#4a7255"/>
      <path id="Icon_awesome-leaf-54" data-name="Icon awesome-leaf" d="M38.4.682A1.094,1.094,0,0,0,36.415.6,12.057,12.057,0,0,1,25.875,6.75H20.25a13.5,13.5,0,0,0-13.5,13.5,13.9,13.9,0,0,0,.105,1.441C11.341,18.478,17.817,15.75,27,15.75A1.125,1.125,0,0,1,27,18C9.323,18,1.828,28.835.169,32.906a2.253,2.253,0,0,0,4.17,1.709,18.5,18.5,0,0,1,5.055-6.37,13.47,13.47,0,0,0,12.3,5.428c11.039-.8,18.809-10.7,18.809-22.823A25.568,25.568,0,0,0,38.4.682Z" transform="matrix(0.616, 0.788, -0.788, 0.616, 953.968, 3917.959)" fill="#4a7255"/>
      <path id="Icon_awesome-leaf-55" data-name="Icon awesome-leaf" d="M38.4.682A1.094,1.094,0,0,0,36.415.6,12.057,12.057,0,0,1,25.875,6.75H20.25a13.5,13.5,0,0,0-13.5,13.5,13.9,13.9,0,0,0,.105,1.441C11.341,18.478,17.817,15.75,27,15.75A1.125,1.125,0,0,1,27,18C9.323,18,1.828,28.835.169,32.906a2.253,2.253,0,0,0,4.17,1.709,18.5,18.5,0,0,1,5.055-6.37,13.47,13.47,0,0,0,12.3,5.428c11.039-.8,18.809-10.7,18.809-22.823A25.568,25.568,0,0,0,38.4.682Z" transform="translate(1129.818 3964.996) rotate(76)" fill="#4a7255"/>
      <path id="Icon_awesome-leaf-56" data-name="Icon awesome-leaf" d="M38.4.682A1.094,1.094,0,0,0,36.415.6,12.057,12.057,0,0,1,25.875,6.75H20.25a13.5,13.5,0,0,0-13.5,13.5,13.9,13.9,0,0,0,.105,1.441C11.341,18.478,17.817,15.75,27,15.75A1.125,1.125,0,0,1,27,18C9.323,18,1.828,28.835.169,32.906a2.253,2.253,0,0,0,4.17,1.709,18.5,18.5,0,0,1,5.055-6.37,13.47,13.47,0,0,0,12.3,5.428c11.039-.8,18.809-10.7,18.809-22.823A25.568,25.568,0,0,0,38.4.682Z" transform="translate(1024 3920)" fill="#4a7255"/>
      <path id="Icon_awesome-leaf-57" data-name="Icon awesome-leaf" d="M38.4.682A1.094,1.094,0,0,0,36.415.6,12.057,12.057,0,0,1,25.875,6.75H20.25a13.5,13.5,0,0,0-13.5,13.5,13.9,13.9,0,0,0,.105,1.441C11.341,18.478,17.817,15.75,27,15.75A1.125,1.125,0,0,1,27,18C9.323,18,1.828,28.835.169,32.906a2.253,2.253,0,0,0,4.17,1.709,18.5,18.5,0,0,1,5.055-6.37,13.47,13.47,0,0,0,12.3,5.428c11.039-.8,18.809-10.7,18.809-22.823A25.568,25.568,0,0,0,38.4.682Z" transform="translate(1024.07 4010.611) rotate(171)" fill="#4a7255"/>
      <path id="Icon_awesome-leaf-58" data-name="Icon awesome-leaf" d="M38.4.682A1.094,1.094,0,0,0,36.415.6,12.057,12.057,0,0,1,25.875,6.75H20.25a13.5,13.5,0,0,0-13.5,13.5,13.9,13.9,0,0,0,.105,1.441C11.341,18.478,17.817,15.75,27,15.75A1.125,1.125,0,0,1,27,18C9.323,18,1.828,28.835.169,32.906a2.253,2.253,0,0,0,4.17,1.709,18.5,18.5,0,0,1,5.055-6.37,13.47,13.47,0,0,0,12.3,5.428c11.039-.8,18.809-10.7,18.809-22.823A25.568,25.568,0,0,0,38.4.682Z" transform="matrix(0.616, 0.788, -0.788, 0.616, 1122.968, 3910.959)" fill="#4a7255"/>
      <path id="Icon_awesome-leaf-59" data-name="Icon awesome-leaf" d="M38.4.682A1.094,1.094,0,0,0,36.415.6,12.057,12.057,0,0,1,25.875,6.75H20.25a13.5,13.5,0,0,0-13.5,13.5,13.9,13.9,0,0,0,.105,1.441C11.341,18.478,17.817,15.75,27,15.75A1.125,1.125,0,0,1,27,18C9.323,18,1.828,28.835.169,32.906a2.253,2.253,0,0,0,4.17,1.709,18.5,18.5,0,0,1,5.055-6.37,13.47,13.47,0,0,0,12.3,5.428c11.039-.8,18.809-10.7,18.809-22.823A25.568,25.568,0,0,0,38.4.682Z" transform="translate(1298.818 3964.996) rotate(76)" fill="#4a7255"/>
      <path id="Icon_awesome-leaf-60" data-name="Icon awesome-leaf" d="M38.4.682A1.094,1.094,0,0,0,36.415.6,12.057,12.057,0,0,1,25.875,6.75H20.25a13.5,13.5,0,0,0-13.5,13.5,13.9,13.9,0,0,0,.105,1.441C11.341,18.478,17.817,15.75,27,15.75A1.125,1.125,0,0,1,27,18C9.323,18,1.828,28.835.169,32.906a2.253,2.253,0,0,0,4.17,1.709,18.5,18.5,0,0,1,5.055-6.37,13.47,13.47,0,0,0,12.3,5.428c11.039-.8,18.809-10.7,18.809-22.823A25.568,25.568,0,0,0,38.4.682Z" transform="translate(1193 3920)" fill="#4a7255"/>
      <path id="Icon_awesome-leaf-61" data-name="Icon awesome-leaf" d="M38.4.682A1.094,1.094,0,0,0,36.415.6,12.057,12.057,0,0,1,25.875,6.75H20.25a13.5,13.5,0,0,0-13.5,13.5,13.9,13.9,0,0,0,.105,1.441C11.341,18.478,17.817,15.75,27,15.75A1.125,1.125,0,0,1,27,18C9.323,18,1.828,28.835.169,32.906a2.253,2.253,0,0,0,4.17,1.709,18.5,18.5,0,0,1,5.055-6.37,13.47,13.47,0,0,0,12.3,5.428c11.039-.8,18.809-10.7,18.809-22.823A25.568,25.568,0,0,0,38.4.682Z" transform="translate(1193.07 4010.611) rotate(171)" fill="#4a7255"/>
      <path id="Icon_awesome-leaf-62" data-name="Icon awesome-leaf" d="M38.4.682A1.094,1.094,0,0,0,36.415.6,12.057,12.057,0,0,1,25.875,6.75H20.25a13.5,13.5,0,0,0-13.5,13.5,13.9,13.9,0,0,0,.105,1.441C11.341,18.478,17.817,15.75,27,15.75A1.125,1.125,0,0,1,27,18C9.323,18,1.828,28.835.169,32.906a2.253,2.253,0,0,0,4.17,1.709,18.5,18.5,0,0,1,5.055-6.37,13.47,13.47,0,0,0,12.3,5.428c11.039-.8,18.809-10.7,18.809-22.823A25.568,25.568,0,0,0,38.4.682Z" transform="matrix(0.616, 0.788, -0.788, 0.616, 1291.968, 3910.959)" fill="#4a7255"/>
    </g>
    <g id="Group_31" data-name="Group 31" transform="translate(3979 6954)">
      <path id="Icon_awesome-leaf-63" data-name="Icon awesome-leaf" d="M38.4.682A1.094,1.094,0,0,0,36.415.6,12.057,12.057,0,0,1,25.875,6.75H20.25a13.5,13.5,0,0,0-13.5,13.5,13.9,13.9,0,0,0,.105,1.441C11.341,18.478,17.817,15.75,27,15.75A1.125,1.125,0,0,1,27,18C9.323,18,1.828,28.835.169,32.906a2.253,2.253,0,0,0,4.17,1.709,18.5,18.5,0,0,1,5.055-6.37,13.47,13.47,0,0,0,12.3,5.428c11.039-.8,18.809-10.7,18.809-22.823A25.568,25.568,0,0,0,38.4.682Z" transform="translate(115.819 3968.996) rotate(76)" fill="#4a7255"/>
      <path id="Icon_awesome-leaf-64" data-name="Icon awesome-leaf" d="M38.4.682A1.094,1.094,0,0,0,36.415.6,12.057,12.057,0,0,1,25.875,6.75H20.25a13.5,13.5,0,0,0-13.5,13.5,13.9,13.9,0,0,0,.105,1.441C11.341,18.478,17.817,15.75,27,15.75A1.125,1.125,0,0,1,27,18C9.323,18,1.828,28.835.169,32.906a2.253,2.253,0,0,0,4.17,1.709,18.5,18.5,0,0,1,5.055-6.37,13.47,13.47,0,0,0,12.3,5.428c11.039-.8,18.809-10.7,18.809-22.823A25.568,25.568,0,0,0,38.4.682Z" transform="translate(10 3924)" fill="#4a7255"/>
      <path id="Icon_awesome-leaf-65" data-name="Icon awesome-leaf" d="M38.4.682A1.094,1.094,0,0,0,36.415.6,12.057,12.057,0,0,1,25.875,6.75H20.25a13.5,13.5,0,0,0-13.5,13.5,13.9,13.9,0,0,0,.105,1.441C11.341,18.478,17.817,15.75,27,15.75A1.125,1.125,0,0,1,27,18C9.323,18,1.828,28.835.169,32.906a2.253,2.253,0,0,0,4.17,1.709,18.5,18.5,0,0,1,5.055-6.37,13.47,13.47,0,0,0,12.3,5.428c11.039-.8,18.809-10.7,18.809-22.823A25.568,25.568,0,0,0,38.4.682Z" transform="translate(10.071 4014.611) rotate(171)" fill="#4a7255"/>
      <path id="Icon_awesome-leaf-66" data-name="Icon awesome-leaf" d="M38.4.682A1.094,1.094,0,0,0,36.415.6,12.057,12.057,0,0,1,25.875,6.75H20.25a13.5,13.5,0,0,0-13.5,13.5,13.9,13.9,0,0,0,.105,1.441C11.341,18.478,17.817,15.75,27,15.75A1.125,1.125,0,0,1,27,18C9.323,18,1.828,28.835.169,32.906a2.253,2.253,0,0,0,4.17,1.709,18.5,18.5,0,0,1,5.055-6.37,13.47,13.47,0,0,0,12.3,5.428c11.039-.8,18.809-10.7,18.809-22.823A25.568,25.568,0,0,0,38.4.682Z" transform="matrix(0.616, 0.788, -0.788, 0.616, 108.968, 3914.959)" fill="#4a7255"/>
      <path id="Icon_awesome-leaf-67" data-name="Icon awesome-leaf" d="M38.4.682A1.094,1.094,0,0,0,36.415.6,12.057,12.057,0,0,1,25.875,6.75H20.25a13.5,13.5,0,0,0-13.5,13.5,13.9,13.9,0,0,0,.105,1.441C11.341,18.478,17.817,15.75,27,15.75A1.125,1.125,0,0,1,27,18C9.323,18,1.828,28.835.169,32.906a2.253,2.253,0,0,0,4.17,1.709,18.5,18.5,0,0,1,5.055-6.37,13.47,13.47,0,0,0,12.3,5.428c11.039-.8,18.809-10.7,18.809-22.823A25.568,25.568,0,0,0,38.4.682Z" transform="translate(284.818 3964.996) rotate(76)" fill="#4a7255"/>
      <path id="Icon_awesome-leaf-68" data-name="Icon awesome-leaf" d="M38.4.682A1.094,1.094,0,0,0,36.415.6,12.057,12.057,0,0,1,25.875,6.75H20.25a13.5,13.5,0,0,0-13.5,13.5,13.9,13.9,0,0,0,.105,1.441C11.341,18.478,17.817,15.75,27,15.75A1.125,1.125,0,0,1,27,18C9.323,18,1.828,28.835.169,32.906a2.253,2.253,0,0,0,4.17,1.709,18.5,18.5,0,0,1,5.055-6.37,13.47,13.47,0,0,0,12.3,5.428c11.039-.8,18.809-10.7,18.809-22.823A25.568,25.568,0,0,0,38.4.682Z" transform="translate(179 3920)" fill="#4a7255"/>
      <path id="Icon_awesome-leaf-69" data-name="Icon awesome-leaf" d="M38.4.682A1.094,1.094,0,0,0,36.415.6,12.057,12.057,0,0,1,25.875,6.75H20.25a13.5,13.5,0,0,0-13.5,13.5,13.9,13.9,0,0,0,.105,1.441C11.341,18.478,17.817,15.75,27,15.75A1.125,1.125,0,0,1,27,18C9.323,18,1.828,28.835.169,32.906a2.253,2.253,0,0,0,4.17,1.709,18.5,18.5,0,0,1,5.055-6.37,13.47,13.47,0,0,0,12.3,5.428c11.039-.8,18.809-10.7,18.809-22.823A25.568,25.568,0,0,0,38.4.682Z" transform="translate(179.07 4010.611) rotate(171)" fill="#4a7255"/>
      <path id="Icon_awesome-leaf-70" data-name="Icon awesome-leaf" d="M38.4.682A1.094,1.094,0,0,0,36.415.6,12.057,12.057,0,0,1,25.875,6.75H20.25a13.5,13.5,0,0,0-13.5,13.5,13.9,13.9,0,0,0,.105,1.441C11.341,18.478,17.817,15.75,27,15.75A1.125,1.125,0,0,1,27,18C9.323,18,1.828,28.835.169,32.906a2.253,2.253,0,0,0,4.17,1.709,18.5,18.5,0,0,1,5.055-6.37,13.47,13.47,0,0,0,12.3,5.428c11.039-.8,18.809-10.7,18.809-22.823A25.568,25.568,0,0,0,38.4.682Z" transform="matrix(0.616, 0.788, -0.788, 0.616, 277.968, 3910.959)" fill="#4a7255"/>
      <path id="Icon_awesome-leaf-71" data-name="Icon awesome-leaf" d="M38.4.682A1.094,1.094,0,0,0,36.415.6,12.057,12.057,0,0,1,25.875,6.75H20.25a13.5,13.5,0,0,0-13.5,13.5,13.9,13.9,0,0,0,.105,1.441C11.341,18.478,17.817,15.75,27,15.75A1.125,1.125,0,0,1,27,18C9.323,18,1.828,28.835.169,32.906a2.253,2.253,0,0,0,4.17,1.709,18.5,18.5,0,0,1,5.055-6.37,13.47,13.47,0,0,0,12.3,5.428c11.039-.8,18.809-10.7,18.809-22.823A25.568,25.568,0,0,0,38.4.682Z" transform="translate(453.818 3960.996) rotate(76)" fill="#4a7255"/>
      <path id="Icon_awesome-leaf-72" data-name="Icon awesome-leaf" d="M38.4.682A1.094,1.094,0,0,0,36.415.6,12.057,12.057,0,0,1,25.875,6.75H20.25a13.5,13.5,0,0,0-13.5,13.5,13.9,13.9,0,0,0,.105,1.441C11.341,18.478,17.817,15.75,27,15.75A1.125,1.125,0,0,1,27,18C9.323,18,1.828,28.835.169,32.906a2.253,2.253,0,0,0,4.17,1.709,18.5,18.5,0,0,1,5.055-6.37,13.47,13.47,0,0,0,12.3,5.428c11.039-.8,18.809-10.7,18.809-22.823A25.568,25.568,0,0,0,38.4.682Z" transform="translate(348 3916)" fill="#4a7255"/>
      <path id="Icon_awesome-leaf-73" data-name="Icon awesome-leaf" d="M38.4.682A1.094,1.094,0,0,0,36.415.6,12.057,12.057,0,0,1,25.875,6.75H20.25a13.5,13.5,0,0,0-13.5,13.5,13.9,13.9,0,0,0,.105,1.441C11.341,18.478,17.817,15.75,27,15.75A1.125,1.125,0,0,1,27,18C9.323,18,1.828,28.835.169,32.906a2.253,2.253,0,0,0,4.17,1.709,18.5,18.5,0,0,1,5.055-6.37,13.47,13.47,0,0,0,12.3,5.428c11.039-.8,18.809-10.7,18.809-22.823A25.568,25.568,0,0,0,38.4.682Z" transform="translate(348.07 4006.611) rotate(171)" fill="#4a7255"/>
      <path id="Icon_awesome-leaf-74" data-name="Icon awesome-leaf" d="M38.4.682A1.094,1.094,0,0,0,36.415.6,12.057,12.057,0,0,1,25.875,6.75H20.25a13.5,13.5,0,0,0-13.5,13.5,13.9,13.9,0,0,0,.105,1.441C11.341,18.478,17.817,15.75,27,15.75A1.125,1.125,0,0,1,27,18C9.323,18,1.828,28.835.169,32.906a2.253,2.253,0,0,0,4.17,1.709,18.5,18.5,0,0,1,5.055-6.37,13.47,13.47,0,0,0,12.3,5.428c11.039-.8,18.809-10.7,18.809-22.823A25.568,25.568,0,0,0,38.4.682Z" transform="matrix(0.616, 0.788, -0.788, 0.616, 446.968, 3906.959)" fill="#4a7255"/>
      <path id="Icon_awesome-leaf-75" data-name="Icon awesome-leaf" d="M38.4.682A1.094,1.094,0,0,0,36.415.6,12.057,12.057,0,0,1,25.875,6.75H20.25a13.5,13.5,0,0,0-13.5,13.5,13.9,13.9,0,0,0,.105,1.441C11.341,18.478,17.817,15.75,27,15.75A1.125,1.125,0,0,1,27,18C9.323,18,1.828,28.835.169,32.906a2.253,2.253,0,0,0,4.17,1.709,18.5,18.5,0,0,1,5.055-6.37,13.47,13.47,0,0,0,12.3,5.428c11.039-.8,18.809-10.7,18.809-22.823A25.568,25.568,0,0,0,38.4.682Z" transform="translate(622.818 3961.996) rotate(76)" fill="#4a7255"/>
      <path id="Icon_awesome-leaf-76" data-name="Icon awesome-leaf" d="M38.4.682A1.094,1.094,0,0,0,36.415.6,12.057,12.057,0,0,1,25.875,6.75H20.25a13.5,13.5,0,0,0-13.5,13.5,13.9,13.9,0,0,0,.105,1.441C11.341,18.478,17.817,15.75,27,15.75A1.125,1.125,0,0,1,27,18C9.323,18,1.828,28.835.169,32.906a2.253,2.253,0,0,0,4.17,1.709,18.5,18.5,0,0,1,5.055-6.37,13.47,13.47,0,0,0,12.3,5.428c11.039-.8,18.809-10.7,18.809-22.823A25.568,25.568,0,0,0,38.4.682Z" transform="translate(517 3917)" fill="#4a7255"/>
      <path id="Icon_awesome-leaf-77" data-name="Icon awesome-leaf" d="M38.4.682A1.094,1.094,0,0,0,36.415.6,12.057,12.057,0,0,1,25.875,6.75H20.25a13.5,13.5,0,0,0-13.5,13.5,13.9,13.9,0,0,0,.105,1.441C11.341,18.478,17.817,15.75,27,15.75A1.125,1.125,0,0,1,27,18C9.323,18,1.828,28.835.169,32.906a2.253,2.253,0,0,0,4.17,1.709,18.5,18.5,0,0,1,5.055-6.37,13.47,13.47,0,0,0,12.3,5.428c11.039-.8,18.809-10.7,18.809-22.823A25.568,25.568,0,0,0,38.4.682Z" transform="translate(517.07 4007.611) rotate(171)" fill="#4a7255"/>
      <path id="Icon_awesome-leaf-78" data-name="Icon awesome-leaf" d="M38.4.682A1.094,1.094,0,0,0,36.415.6,12.057,12.057,0,0,1,25.875,6.75H20.25a13.5,13.5,0,0,0-13.5,13.5,13.9,13.9,0,0,0,.105,1.441C11.341,18.478,17.817,15.75,27,15.75A1.125,1.125,0,0,1,27,18C9.323,18,1.828,28.835.169,32.906a2.253,2.253,0,0,0,4.17,1.709,18.5,18.5,0,0,1,5.055-6.37,13.47,13.47,0,0,0,12.3,5.428c11.039-.8,18.809-10.7,18.809-22.823A25.568,25.568,0,0,0,38.4.682Z" transform="matrix(0.616, 0.788, -0.788, 0.616, 615.968, 3907.959)" fill="#4a7255"/>
      <path id="Icon_awesome-leaf-79" data-name="Icon awesome-leaf" d="M38.4.682A1.094,1.094,0,0,0,36.415.6,12.057,12.057,0,0,1,25.875,6.75H20.25a13.5,13.5,0,0,0-13.5,13.5,13.9,13.9,0,0,0,.105,1.441C11.341,18.478,17.817,15.75,27,15.75A1.125,1.125,0,0,1,27,18C9.323,18,1.828,28.835.169,32.906a2.253,2.253,0,0,0,4.17,1.709,18.5,18.5,0,0,1,5.055-6.37,13.47,13.47,0,0,0,12.3,5.428c11.039-.8,18.809-10.7,18.809-22.823A25.568,25.568,0,0,0,38.4.682Z" transform="translate(791.818 3964.996) rotate(76)" fill="#4a7255"/>
      <path id="Icon_awesome-leaf-80" data-name="Icon awesome-leaf" d="M38.4.682A1.094,1.094,0,0,0,36.415.6,12.057,12.057,0,0,1,25.875,6.75H20.25a13.5,13.5,0,0,0-13.5,13.5,13.9,13.9,0,0,0,.105,1.441C11.341,18.478,17.817,15.75,27,15.75A1.125,1.125,0,0,1,27,18C9.323,18,1.828,28.835.169,32.906a2.253,2.253,0,0,0,4.17,1.709,18.5,18.5,0,0,1,5.055-6.37,13.47,13.47,0,0,0,12.3,5.428c11.039-.8,18.809-10.7,18.809-22.823A25.568,25.568,0,0,0,38.4.682Z" transform="translate(686 3920)" fill="#4a7255"/>
      <path id="Icon_awesome-leaf-81" data-name="Icon awesome-leaf" d="M38.4.682A1.094,1.094,0,0,0,36.415.6,12.057,12.057,0,0,1,25.875,6.75H20.25a13.5,13.5,0,0,0-13.5,13.5,13.9,13.9,0,0,0,.105,1.441C11.341,18.478,17.817,15.75,27,15.75A1.125,1.125,0,0,1,27,18C9.323,18,1.828,28.835.169,32.906a2.253,2.253,0,0,0,4.17,1.709,18.5,18.5,0,0,1,5.055-6.37,13.47,13.47,0,0,0,12.3,5.428c11.039-.8,18.809-10.7,18.809-22.823A25.568,25.568,0,0,0,38.4.682Z" transform="translate(686.07 4010.611) rotate(171)" fill="#4a7255"/>
      <path id="Icon_awesome-leaf-82" data-name="Icon awesome-leaf" d="M38.4.682A1.094,1.094,0,0,0,36.415.6,12.057,12.057,0,0,1,25.875,6.75H20.25a13.5,13.5,0,0,0-13.5,13.5,13.9,13.9,0,0,0,.105,1.441C11.341,18.478,17.817,15.75,27,15.75A1.125,1.125,0,0,1,27,18C9.323,18,1.828,28.835.169,32.906a2.253,2.253,0,0,0,4.17,1.709,18.5,18.5,0,0,1,5.055-6.37,13.47,13.47,0,0,0,12.3,5.428c11.039-.8,18.809-10.7,18.809-22.823A25.568,25.568,0,0,0,38.4.682Z" transform="matrix(0.616, 0.788, -0.788, 0.616, 784.968, 3910.959)" fill="#4a7255"/>
      <path id="Icon_awesome-leaf-83" data-name="Icon awesome-leaf" d="M38.4.682A1.094,1.094,0,0,0,36.415.6,12.057,12.057,0,0,1,25.875,6.75H20.25a13.5,13.5,0,0,0-13.5,13.5,13.9,13.9,0,0,0,.105,1.441C11.341,18.478,17.817,15.75,27,15.75A1.125,1.125,0,0,1,27,18C9.323,18,1.828,28.835.169,32.906a2.253,2.253,0,0,0,4.17,1.709,18.5,18.5,0,0,1,5.055-6.37,13.47,13.47,0,0,0,12.3,5.428c11.039-.8,18.809-10.7,18.809-22.823A25.568,25.568,0,0,0,38.4.682Z" transform="translate(960.818 3971.996) rotate(76)" fill="#4a7255"/>
      <path id="Icon_awesome-leaf-84" data-name="Icon awesome-leaf" d="M38.4.682A1.094,1.094,0,0,0,36.415.6,12.057,12.057,0,0,1,25.875,6.75H20.25a13.5,13.5,0,0,0-13.5,13.5,13.9,13.9,0,0,0,.105,1.441C11.341,18.478,17.817,15.75,27,15.75A1.125,1.125,0,0,1,27,18C9.323,18,1.828,28.835.169,32.906a2.253,2.253,0,0,0,4.17,1.709,18.5,18.5,0,0,1,5.055-6.37,13.47,13.47,0,0,0,12.3,5.428c11.039-.8,18.809-10.7,18.809-22.823A25.568,25.568,0,0,0,38.4.682Z" transform="translate(855 3927)" fill="#4a7255"/>
      <path id="Icon_awesome-leaf-85" data-name="Icon awesome-leaf" d="M38.4.682A1.094,1.094,0,0,0,36.415.6,12.057,12.057,0,0,1,25.875,6.75H20.25a13.5,13.5,0,0,0-13.5,13.5,13.9,13.9,0,0,0,.105,1.441C11.341,18.478,17.817,15.75,27,15.75A1.125,1.125,0,0,1,27,18C9.323,18,1.828,28.835.169,32.906a2.253,2.253,0,0,0,4.17,1.709,18.5,18.5,0,0,1,5.055-6.37,13.47,13.47,0,0,0,12.3,5.428c11.039-.8,18.809-10.7,18.809-22.823A25.568,25.568,0,0,0,38.4.682Z" transform="translate(855.07 4017.611) rotate(171)" fill="#4a7255"/>
      <path id="Icon_awesome-leaf-86" data-name="Icon awesome-leaf" d="M38.4.682A1.094,1.094,0,0,0,36.415.6,12.057,12.057,0,0,1,25.875,6.75H20.25a13.5,13.5,0,0,0-13.5,13.5,13.9,13.9,0,0,0,.105,1.441C11.341,18.478,17.817,15.75,27,15.75A1.125,1.125,0,0,1,27,18C9.323,18,1.828,28.835.169,32.906a2.253,2.253,0,0,0,4.17,1.709,18.5,18.5,0,0,1,5.055-6.37,13.47,13.47,0,0,0,12.3,5.428c11.039-.8,18.809-10.7,18.809-22.823A25.568,25.568,0,0,0,38.4.682Z" transform="matrix(0.616, 0.788, -0.788, 0.616, 953.968, 3917.959)" fill="#4a7255"/>
      <path id="Icon_awesome-leaf-87" data-name="Icon awesome-leaf" d="M38.4.682A1.094,1.094,0,0,0,36.415.6,12.057,12.057,0,0,1,25.875,6.75H20.25a13.5,13.5,0,0,0-13.5,13.5,13.9,13.9,0,0,0,.105,1.441C11.341,18.478,17.817,15.75,27,15.75A1.125,1.125,0,0,1,27,18C9.323,18,1.828,28.835.169,32.906a2.253,2.253,0,0,0,4.17,1.709,18.5,18.5,0,0,1,5.055-6.37,13.47,13.47,0,0,0,12.3,5.428c11.039-.8,18.809-10.7,18.809-22.823A25.568,25.568,0,0,0,38.4.682Z" transform="translate(1129.818 3964.996) rotate(76)" fill="#4a7255"/>
      <path id="Icon_awesome-leaf-88" data-name="Icon awesome-leaf" d="M38.4.682A1.094,1.094,0,0,0,36.415.6,12.057,12.057,0,0,1,25.875,6.75H20.25a13.5,13.5,0,0,0-13.5,13.5,13.9,13.9,0,0,0,.105,1.441C11.341,18.478,17.817,15.75,27,15.75A1.125,1.125,0,0,1,27,18C9.323,18,1.828,28.835.169,32.906a2.253,2.253,0,0,0,4.17,1.709,18.5,18.5,0,0,1,5.055-6.37,13.47,13.47,0,0,0,12.3,5.428c11.039-.8,18.809-10.7,18.809-22.823A25.568,25.568,0,0,0,38.4.682Z" transform="translate(1024 3920)" fill="#4a7255"/>
      <path id="Icon_awesome-leaf-89" data-name="Icon awesome-leaf" d="M38.4.682A1.094,1.094,0,0,0,36.415.6,12.057,12.057,0,0,1,25.875,6.75H20.25a13.5,13.5,0,0,0-13.5,13.5,13.9,13.9,0,0,0,.105,1.441C11.341,18.478,17.817,15.75,27,15.75A1.125,1.125,0,0,1,27,18C9.323,18,1.828,28.835.169,32.906a2.253,2.253,0,0,0,4.17,1.709,18.5,18.5,0,0,1,5.055-6.37,13.47,13.47,0,0,0,12.3,5.428c11.039-.8,18.809-10.7,18.809-22.823A25.568,25.568,0,0,0,38.4.682Z" transform="translate(1024.07 4010.611) rotate(171)" fill="#4a7255"/>
      <path id="Icon_awesome-leaf-90" data-name="Icon awesome-leaf" d="M38.4.682A1.094,1.094,0,0,0,36.415.6,12.057,12.057,0,0,1,25.875,6.75H20.25a13.5,13.5,0,0,0-13.5,13.5,13.9,13.9,0,0,0,.105,1.441C11.341,18.478,17.817,15.75,27,15.75A1.125,1.125,0,0,1,27,18C9.323,18,1.828,28.835.169,32.906a2.253,2.253,0,0,0,4.17,1.709,18.5,18.5,0,0,1,5.055-6.37,13.47,13.47,0,0,0,12.3,5.428c11.039-.8,18.809-10.7,18.809-22.823A25.568,25.568,0,0,0,38.4.682Z" transform="matrix(0.616, 0.788, -0.788, 0.616, 1122.968, 3910.959)" fill="#4a7255"/>
      <path id="Icon_awesome-leaf-91" data-name="Icon awesome-leaf" d="M38.4.682A1.094,1.094,0,0,0,36.415.6,12.057,12.057,0,0,1,25.875,6.75H20.25a13.5,13.5,0,0,0-13.5,13.5,13.9,13.9,0,0,0,.105,1.441C11.341,18.478,17.817,15.75,27,15.75A1.125,1.125,0,0,1,27,18C9.323,18,1.828,28.835.169,32.906a2.253,2.253,0,0,0,4.17,1.709,18.5,18.5,0,0,1,5.055-6.37,13.47,13.47,0,0,0,12.3,5.428c11.039-.8,18.809-10.7,18.809-22.823A25.568,25.568,0,0,0,38.4.682Z" transform="translate(1193 3920)" fill="#4a7255"/>
      <path id="Icon_awesome-leaf-92" data-name="Icon awesome-leaf" d="M38.4.682A1.094,1.094,0,0,0,36.415.6,12.057,12.057,0,0,1,25.875,6.75H20.25a13.5,13.5,0,0,0-13.5,13.5,13.9,13.9,0,0,0,.105,1.441C11.341,18.478,17.817,15.75,27,15.75A1.125,1.125,0,0,1,27,18C9.323,18,1.828,28.835.169,32.906a2.253,2.253,0,0,0,4.17,1.709,18.5,18.5,0,0,1,5.055-6.37,13.47,13.47,0,0,0,12.3,5.428c11.039-.8,18.809-10.7,18.809-22.823A25.568,25.568,0,0,0,38.4.682Z" transform="translate(1193.07 4010.611) rotate(171)" fill="#4a7255"/>
    </g>
    <g id="Group_32" data-name="Group 32" transform="translate(3906 7063)">
      <path id="Icon_awesome-leaf-93" data-name="Icon awesome-leaf" d="M38.4.682A1.094,1.094,0,0,0,36.415.6,12.4,12.4,0,0,1,30.123,5.99h9.94A24.943,24.943,0,0,0,38.4.682Z" transform="translate(10 3924)" fill="#4a7255"/>
      <path id="Icon_awesome-leaf-94" data-name="Icon awesome-leaf" d="M38.4.682A1.094,1.094,0,0,0,36.415.6,12.057,12.057,0,0,1,25.875,6.75H20.25a13.5,13.5,0,0,0-8.891,3.266c3.35,0,28.046-.041,29.125-.041A25.065,25.065,0,0,0,38.4.682Z" transform="translate(179 3920)" fill="#4a7255"/>
      <path id="Icon_awesome-leaf-95" data-name="Icon awesome-leaf" d="M18.8,6.827A13.434,13.434,0,0,0,6.75,20.25a13.9,13.9,0,0,0,.105,1.441c.193-.138.389-.275.839-.579C7.694,21.112,17.789,8.122,18.8,6.827Z" transform="matrix(0.616, 0.788, -0.788, 0.616, 277.968, 3910.959)" fill="#4a7255"/>
      <path id="Icon_awesome-leaf-96" data-name="Icon awesome-leaf" d="M38.4.682A1.094,1.094,0,0,0,36.415.6,12.057,12.057,0,0,1,25.875,6.75H20.25A13.671,13.671,0,0,0,8.328,14c5.209,0,22.02.031,32.016.031a31.294,31.294,0,0,0,.156-3.182A25.568,25.568,0,0,0,38.4.682Z" transform="translate(348 3916)" fill="#4a7255"/>
      <path id="Icon_awesome-leaf-97" data-name="Icon awesome-leaf" d="M23.967,6.75H20.25a13.5,13.5,0,0,0-13.5,13.5,13.9,13.9,0,0,0,.105,1.441,30.869,30.869,0,0,1,8.879-4.355c2-2.554-3.791,4.8-2.7,3.411C5.375,24.108,1.3,30.13.169,32.906a2.188,2.188,0,0,0,1.1,2.922Z" transform="matrix(0.616, 0.788, -0.788, 0.616, 446.968, 3906.959)" fill="#4a7255"/>
      <path id="Icon_awesome-leaf-98" data-name="Icon awesome-leaf" d="M38.4.682A1.094,1.094,0,0,0,36.415.6,12.057,12.057,0,0,1,25.875,6.75H20.25A13.814,13.814,0,0,0,8.891,13.016H40.5c.054-.558,0-1.294,0-2.166A25.568,25.568,0,0,0,38.4.682Z" transform="translate(517 3917)" fill="#4a7255"/>
      <path id="Icon_awesome-leaf-99" data-name="Icon awesome-leaf" d="M22.713,6.78,20.25,6.75a13.5,13.5,0,0,0-13.5,13.5,13.9,13.9,0,0,0,.105,1.441,30.664,30.664,0,0,1,7.158-3.776c2.165-2.866-6.757,8.593-3.044,3.84A24.026,24.026,0,0,0,.169,32.906a2.849,2.849,0,0,0,.313,2.158C.561,35.3,20.272,9.906,22.713,6.78Z" transform="matrix(0.616, 0.788, -0.788, 0.616, 615.968, 3907.959)" fill="#4a7255"/>
      <path id="Icon_awesome-leaf-100" data-name="Icon awesome-leaf" d="M38.4.682A1.094,1.094,0,0,0,36.415.6,12.057,12.057,0,0,1,25.875,6.75H20.25a14.026,14.026,0,0,0-8.6,3.237c5.06,0,27.112.02,28.844.02A25.6,25.6,0,0,0,38.4.682Z" transform="translate(686 3920)" fill="#4a7255"/>
      <path id="Icon_awesome-leaf-101" data-name="Icon awesome-leaf" d="M18.8,6.827A13.434,13.434,0,0,0,6.75,20.25a13.9,13.9,0,0,0,.105,1.441c.193-.138.389-.275.839-.579C10.786,17.155,18.139,7.675,18.8,6.827Z" transform="matrix(0.616, 0.788, -0.788, 0.616, 784.968, 3910.959)" fill="#4a7255"/>
      <path id="Icon_awesome-leaf-102" data-name="Icon awesome-leaf" d="M38.4.682A1.094,1.094,0,0,0,36.415.6,13.109,13.109,0,0,1,34.578,3h4.709A20.825,20.825,0,0,0,38.4.682Z" transform="translate(855 3927)" fill="#4a7255"/>
      <path id="Icon_awesome-leaf-103" data-name="Icon awesome-leaf" d="M38.4.682A1.094,1.094,0,0,0,36.415.6,12.057,12.057,0,0,1,25.875,6.75H20.25a12.919,12.919,0,0,0-8.766,3.266h29A25.63,25.63,0,0,0,38.4.682Z" transform="translate(1024 3920)" fill="#4a7255"/>
      <path id="Icon_awesome-leaf-104" data-name="Icon awesome-leaf" d="M18.767,6.831A13.431,13.431,0,0,0,6.75,20.25a13.9,13.9,0,0,0,.105,1.441c.161-.116-2.132,3.169.75-.52S17.811,8.054,18.767,6.831Z" transform="matrix(0.616, 0.788, -0.788, 0.616, 1122.968, 3910.959)" fill="#4a7255"/>
      <path id="Icon_awesome-leaf-105" data-name="Icon awesome-leaf" d="M38.4.682A1.094,1.094,0,0,0,36.415.6,12.057,12.057,0,0,1,25.875,6.75H20.25a13.644,13.644,0,0,0-8.909,3.359c5.505,0,27.3-.135,29.144-.135A25.065,25.065,0,0,0,38.4.682Z" transform="translate(1193 3920)" fill="#4a7255"/>
      <path id="Icon_awesome-leaf-106" data-name="Icon awesome-leaf" d="M18.767,6.831A13.431,13.431,0,0,0,6.75,20.25a13.9,13.9,0,0,0,.105,1.441c.161-.116.326-.231.75-.52C10.919,16.814,17.268,8.8,18.767,6.831Z" transform="matrix(0.616, 0.788, -0.788, 0.616, 1291.968, 3910.959)" fill="#4a7255"/>
    </g>
  </g>
</svg>
