<svg xmlns="http://www.w3.org/2000/svg" width="611" height="156.779" viewBox="0 0 611 156.779">
  <g id="Group_28" data-name="Group 28" transform="translate(-5584 -9801.221)">
    <path id="Icon_awesome-leaf" data-name="Icon awesome-leaf" d="M143.655,2.556a4.092,4.092,0,0,0-7.444-.316A45.1,45.1,0,0,1,96.784,25.255H75.741a50.514,50.514,0,0,0-50.5,50.5,52.007,52.007,0,0,0,.395,5.392c16.781-12.02,41.006-22.226,75.357-22.226a4.208,4.208,0,1,1,0,8.417C34.867,67.34,6.828,107.872.621,123.1a8.428,8.428,0,0,0,15.6,6.392c.395-.947,5.5-12.6,18.912-23.83a50.389,50.389,0,0,0,46,20.306c41.3-3,70.36-40.033,70.36-85.379a95.647,95.647,0,0,0-7.838-38.034Z" transform="translate(5754.697 9934.248) rotate(171)" fill="#4a7255"/>
    <text id="Homegrown_Herbs" data-name="Homegrown Herbs" transform="translate(5669 9943)" fill="#fff" font-size="59" font-family="SegoeUI-Bold, Segoe UI" font-weight="700"><tspan x="0" y="0">Homegrown Herbs</tspan></text>
  </g>
</svg>
